<svg xmlns="http://www.w3.org/2000/svg" viewBox="0 0 1024 1024" role="img" aria-labelledby="title">
  <title id="title">FriendCircle</title>
  <defs>
    <linearGradient id="background" x1="128" y1="96" x2="896" y2="928" gradientUnits="userSpaceOnUse">
      <stop stop-color="#2B8CFF"/>
      <stop offset="1" stop-color="#0B5FC7"/>
    </linearGradient>
    <linearGradient id="back-bubble" x1="254" y1="250" x2="696" y2="634" gradientUnits="userSpaceOnUse">
      <stop stop-color="#DDF0FF"/>
      <stop offset="1" stop-color="#83C4FF"/>
    </linearGradient>
  </defs>
  <rect width="1024" height="1024" fill="url(#background)"/>
  <circle cx="844" cy="168" r="224" fill="#FFFFFF" opacity=".07"/>
  <circle cx="148" cy="884" r="264" fill="#001E49" opacity=".10"/>
  <path
    fill="url(#back-bubble)"
    d="M246 248h336c74 0 134 60 134 134v116c0 74-60 134-134 134h-92l-118 98v-98H246c-74 0-134-60-134-134V382c0-74 60-134 134-134Z"
    opacity=".82"
  />
  <path
    fill="#FFFFFF"
    d="M414 364h364c74 0 134 60 134 134v144c0 74-60 134-134 134H650L522 882V776H414c-74 0-134-60-134-134V498c0-74 60-134 134-134Z"
  />
  <circle cx="462" cy="570" r="33" fill="#1473E6"/>
  <circle cx="596" cy="570" r="33" fill="#1473E6"/>
  <circle cx="730" cy="570" r="33" fill="#1473E6"/>
</svg>
